<svg xmlns="http://www.w3.org/2000/svg" width="1024" height="1024" viewBox="0 0 1024 1024">
<g>
<path d="M 928.04 549.14 C928.02,550.05 927.29,551.06 926.41,551.40 C925.06,551.92 924.93,551.40 925.52,547.88 C925.99,545.10 925.88,543.96 925.17,544.39 C924.55,544.78 924.00,543.76 923.81,541.86 L 923.50 538.69 L 920.36 541.34 C916.73,544.41 914.39,544.67 911.11,542.36 C908.36,540.44 897.00,540.38 897.00,542.30 C897.00,542.78 896.44,542.97 895.75,542.74 C894.99,542.48 894.01,543.92 893.26,546.40 L 892.03 550.50 L 892.51 544.84 C892.78,541.73 893.43,534.98 893.95,529.84 C899.59,474.81 891.61,419.35 870.31,365.50 C864.80,351.59 846.30,314.00 844.95,314.00 C844.56,314.00 839.93,318.50 834.65,324.00 C829.37,329.50 824.70,334.00 824.28,334.00 C823.86,334.00 815.65,341.76 806.04,351.25 C796.42,360.74 789.78,367.13 791.28,365.45 C793.99,362.41 794.90,360.33 793.01,361.49 C792.43,361.85 792.29,361.42 792.66,360.44 C793.20,359.04 792.98,358.94 791.32,359.83 C790.03,360.52 776.56,360.92 752.92,360.97 C713.46,361.05 695.14,361.50 692.06,362.48 C690.98,362.82 688.80,362.43 687.21,361.61 C684.65,360.28 684.00,360.29 681.41,361.63 C679.81,362.46 678.28,363.22 678.00,363.32 C677.72,363.42 677.62,363.87 677.77,364.32 C677.93,364.78 677.64,364.90 677.14,364.59 C676.64,364.28 674.94,364.99 673.37,366.17 C669.79,368.84 686.06,352.13 744.44,293.18 L 790.31 246.85 L 780.91 237.34 C766.24,222.50 748.81,207.82 727.95,192.73 L 725.50 190.95 L 729.00 191.59 C730.92,191.95 733.56,192.78 734.86,193.45 C736.82,194.46 737.83,194.36 740.82,192.84 C742.80,191.83 746.19,191.00 748.35,191.00 C751.69,191.00 753.23,190.17 758.59,185.46 C762.93,181.64 766.54,179.44 770.17,178.36 C773.08,177.49 776.54,175.94 777.86,174.89 C779.19,173.85 780.72,173.00 781.27,173.00 C784.15,173.00 811.30,197.50 825.36,212.78 C886.47,279.19 923.50,364.53 931.09,456.50 C932.54,474.06 931.67,520.13 929.59,536.00 C928.76,542.33 928.07,548.24 928.04,549.14 ZM 205.38 275.60 L 204.38 276.77 C194.08,288.88 189.77,293.93 189.23,293.56 C188.84,293.28 190.38,290.21 193.04,284.94 L 193.39 284.23 C220.70,229.96 272.11,176.19 328.28,143.16 C333.11,140.32 337.22,138.00 337.42,138.00 C337.62,138.00 338.06,139.12 338.41,140.48 C338.76,141.89 340.42,143.68 342.23,144.62 C343.99,145.53 348.32,148.49 351.85,151.19 C355.38,153.90 358.84,155.89 359.54,155.62 C360.85,155.12 364.88,157.51 364.00,158.27 C363.72,158.51 358.25,161.05 351.84,163.93 C299.53,187.39 245.25,228.78 205.38,275.60 ZM 370.69 155.79 C366.63,157.26 364.32,157.33 363.50,156.00 C363.16,155.45 363.39,155.00 364.00,155.00 C364.61,155.00 364.86,154.58 364.54,154.07 C363.83,152.92 366.56,152.11 370.42,152.33 C374.51,152.57 374.65,154.36 370.69,155.79 ZM 679.00 361.62 C679.00,362.45 679.82,361.92 681.13,360.25 C682.37,358.66 682.34,358.63 680.75,359.87 C679.79,360.63 679.00,361.41 679.00,361.62 Z" fill="rgb(4,136,252)"/>
<path d="M 786.75 176.56 C783.93,174.33 781.94,173.00 781.27,173.00 C780.72,173.00 779.19,173.85 777.86,174.89 C776.54,175.94 773.08,177.49 770.17,178.36 C766.54,179.44 762.93,181.64 758.59,185.46 C753.23,190.17 751.69,191.00 748.35,191.00 C746.19,191.00 742.80,191.83 740.82,192.84 C737.83,194.36 736.82,194.46 734.86,193.45 C733.56,192.78 730.92,191.95 729.00,191.59 L 725.50 190.95 L 727.95 192.73 C748.81,207.82 766.24,222.50 780.91,237.34 L 784.40 240.87 L 776.96 233.60 C718.39,176.34 647.23,142.18 562.00,130.42 C546.46,128.28 502.16,127.41 484.88,128.92 C445.43,132.34 407.85,141.09 372.22,155.12 C374.52,153.85 373.89,152.53 370.42,152.33 C366.56,152.11 363.83,152.92 364.54,154.07 C364.86,154.58 364.61,155.00 364.00,155.00 C363.39,155.00 363.16,155.45 363.50,156.00 C364.24,157.19 366.18,157.26 369.52,156.19 C366.71,157.33 363.91,158.49 361.13,159.69 C362.81,158.89 363.88,158.37 364.00,158.27 C364.88,157.51 360.85,155.12 359.54,155.62 C358.84,155.89 355.38,153.90 351.85,151.19 C348.32,148.49 343.99,145.53 342.23,144.62 C340.42,143.68 338.76,141.89 338.41,140.48 C338.06,139.12 337.62,138.00 337.42,138.00 C337.24,138.00 333.90,139.88 329.71,142.33 C332.43,140.65 334.77,139.19 336.11,138.35 C338.87,136.62 347.51,132.04 355.31,128.19 C399.17,106.51 438.51,94.75 488.50,88.36 C508.32,85.82 557.53,85.81 578.00,88.33 C641.27,96.12 699.93,117.22 751.50,150.74 C763.79,158.72 775.55,167.35 786.75,176.56 ZM 861.27 257.95 C900.64,315.42 925.05,383.52 931.09,456.45 C925.11,384.20 900.98,316.05 861.27,257.95 ZM 313.18 152.61 C295.32,164.47 278.14,178.31 262.30,193.45 C278.34,178.04 295.59,164.11 313.18,152.61 ZM 223.60 255.60 C218.96,260.39 214.36,265.36 209.70,270.61 C214.18,265.53 218.82,260.52 223.60,255.60 ZM 810.15 197.42 C806.67,194.08 803.12,190.78 799.75,187.72 C803.28,190.90 806.75,194.13 810.15,197.42 ZM 335.95 171.57 C329.84,174.73 323.79,178.05 317.80,181.53 C323.84,178.01 329.90,174.68 335.95,171.57 ZM 189.92 293.21 C189.57,293.53 189.35,293.69 189.31,293.64 C189.29,293.63 189.29,293.61 189.29,293.57 C189.40,293.58 189.61,293.46 189.92,293.21 Z" fill="rgb(1,183,252)"/>
<path d="M 523.00 512.08 C506.77,527.79 491.81,542.12 489.75,543.93 L 486.00 547.21 L 486.07 535.35 C486.14,525.31 487.45,511.31 487.89,516.00 C488.00,517.21 488.19,517.24 488.88,516.16 C489.34,515.43 490.01,514.87 490.36,514.91 C493.80,515.37 495.89,514.36 499.95,510.25 C502.54,507.64 508.67,501.59 513.58,496.80 C527.05,483.67 532.29,478.04 536.53,472.10 C538.66,469.14 542.62,464.64 545.35,462.10 C548.07,459.57 551.09,456.21 552.06,454.64 C556.41,447.55 582.39,421.08 587.41,418.62 C592.60,416.07 592.90,416.84 592.32,431.33 L 591.80 444.50 L 572.15 464.00 C561.34,474.73 539.22,496.37 523.00,512.08 Z" fill="rgb(5,74,192)"/>
<path d="M 592.53 422.67 C592.42,416.67 591.26,416.73 587.41,418.62 C582.39,421.08 556.41,447.55 552.06,454.64 C551.09,456.21 548.07,459.57 545.35,462.10 C542.62,464.64 538.66,469.14 536.53,472.10 C532.29,478.04 527.05,483.67 513.58,496.80 C508.67,501.59 502.54,507.64 499.95,510.25 C495.89,514.36 493.80,515.37 490.36,514.91 C490.01,514.87 489.34,515.43 488.88,516.16 C488.19,517.24 488.00,517.21 487.89,516.00 C487.45,511.31 486.14,525.31 486.07,535.35 L 486.02 543.28 L 485.78 522.82 L 485.50 498.50 L 538.44 444.75 C567.56,415.19 591.81,391.00 592.35,391.00 C592.97,391.00 593.08,400.66 592.65,417.75 ZM 523.00 512.08 C539.22,496.37 561.34,474.73 572.15,464.00 L 591.80 444.50 L 592.29 432.25 L 591.98 444.50 L 572.24 464.00 C561.38,474.73 539.22,496.37 523.00,512.08 Z" fill="rgb(6,51,139)"/>
<path d="M 259.36 505.93 C275.37,521.84 288.23,535.10 287.93,535.40 C287.64,535.70 284.04,532.55 279.95,528.40 C270.88,519.21 250.35,500.04 251.33,501.68 C252.30,503.32 249.29,504.09 242.78,503.88 C237.81,503.72 236.91,503.31 232.66,499.30 L 228.00 494.89 L 228.00 485.95 C228.00,480.01 228.38,477.00 229.12,477.00 C229.74,477.00 243.34,490.02 259.36,505.93 ZM 245.00 509.69 C245.00,510.46 244.17,509.78 241.44,506.75 L 238.50 503.50 L 241.75 506.44 C243.54,508.05 245.00,509.51 245.00,509.69 Z" fill="rgb(56,68,110)"/>
<path d="M 523.00 512.08 C515.51,519.34 508.28,526.30 502.48,531.87 L 509.55 524.97 C524.86,510.04 537.11,498.19 546.59,489.12 C557.33,478.66 566.41,469.76 572.24,464.00 L 591.98 444.50 L 592.29 432.25 L 592.29 432.25 L 592.32 431.33 C592.47,427.59 592.56,424.76 592.53,422.67 L 592.65 417.75 C592.85,409.73 592.93,403.35 592.90,398.84 C592.72,394.48 592.50,391.49 592.25,391.05 C590.48,392.33 566.76,416.00 538.44,444.75 C567.56,415.19 591.74,391.00 592.19,391.00 C592.21,391.00 592.23,391.02 592.25,391.05 C592.30,391.02 592.33,391.00 592.35,391.00 C592.68,391.00 592.86,393.72 592.90,398.84 C593.31,408.84 593.46,426.06 593.08,436.00 L 592.76 444.50 L 617.63 419.99 C646.30,391.74 778.31,259.01 785.31,251.40 L 789.88 246.42 L 784.40 240.87 L 784.40 240.87 L 776.96 233.60 C731.62,189.27 678.74,158.79 617.62,141.83 C678.62,158.76 731.42,189.16 776.75,233.37 L 783.37 239.83 L 790.00 246.29 L 789.88 246.42 L 790.31 246.85 L 744.44 293.18 C686.06,352.13 669.79,368.84 673.37,366.17 C674.94,364.99 676.64,364.28 677.14,364.59 C677.64,364.90 677.93,364.78 677.77,364.32 C677.62,363.87 677.72,363.42 678.00,363.32 C678.28,363.22 679.81,362.46 681.41,361.63 C684.00,360.29 684.65,360.28 687.21,361.61 C688.80,362.43 690.98,362.82 692.06,362.48 C695.14,361.50 713.46,361.05 752.92,360.97 C776.56,360.92 790.03,360.52 791.32,359.83 C792.98,358.94 793.20,359.04 792.66,360.44 C792.29,361.42 792.43,361.85 793.01,361.49 C794.90,360.33 793.99,362.41 791.28,365.45 C789.78,367.13 796.42,360.74 806.04,351.25 C815.65,341.76 823.86,334.00 824.28,334.00 C824.70,334.00 829.37,329.50 834.65,324.00 C839.93,318.50 844.56,314.00 844.95,314.00 C844.96,314.00 844.98,314.00 845.00,314.01 C845.01,314.00 845.02,314.00 845.02,314.00 C845.67,314.00 850.78,323.74 856.35,335.10 C850.87,323.96 845.85,314.40 845.00,314.01 C843.95,314.72 813.20,345.49 776.06,383.00 C738.47,420.95 707.25,452.00 706.68,452.00 C706.10,452.00 706.88,450.69 708.42,449.08 C709.96,447.47 710.98,445.56 710.69,444.83 C710.26,443.76 710.14,443.75 710.08,444.81 C710.04,445.53 709.60,445.87 709.11,445.57 C708.61,445.26 706.70,445.65 704.84,446.42 C702.11,447.56 695.67,447.75 671.09,447.42 C650.74,447.14 639.35,447.37 636.60,448.11 C634.35,448.72 629.75,449.20 626.38,449.18 C623.02,449.17 619.05,449.78 617.57,450.55 C615.82,451.46 613.37,451.74 610.54,451.35 C607.14,450.88 605.00,451.31 600.58,453.34 C597.48,454.75 594.25,455.65 593.41,455.33 C592.54,454.99 590.73,455.79 589.19,457.18 C585.82,460.24 581.00,462.41 581.00,460.87 C581.00,460.28 579.40,461.20 577.44,462.92 C575.48,464.64 573.44,465.77 572.90,465.44 C572.28,465.05 564.48,472.03 547.66,488.10 C539.31,496.25 530.52,504.80 523.00,512.08 ZM 911.43 619.08 C908.09,629.40 905.29,633.73 906.37,626.90 C907.13,622.09 906.27,620.70 903.68,622.51 C900.94,624.43 892.11,624.40 889.56,622.47 C888.48,621.65 885.49,621.00 882.85,621.00 C878.95,621.00 877.62,621.49 875.58,623.70 C874.20,625.19 872.79,626.12 872.45,625.78 C872.11,625.44 874.13,618.15 876.94,609.58 C885.35,583.95 890.92,558.31 893.66,532.76 C893.20,537.31 892.73,542.30 892.51,544.84 L 892.03 550.50 L 893.26 546.40 C894.01,543.92 894.99,542.48 895.75,542.74 C896.44,542.97 897.00,542.78 897.00,542.30 C897.00,540.38 908.36,540.44 911.11,542.36 C914.39,544.67 916.73,544.41 920.36,541.34 L 923.50 538.69 L 923.81 541.86 C924.00,543.76 924.55,544.78 925.17,544.39 C925.88,543.96 925.99,545.10 925.52,547.88 C924.93,551.40 925.06,551.92 926.41,551.40 C926.91,551.20 927.36,550.79 927.66,550.31 C924.31,573.24 918.96,595.79 911.43,619.08 ZM 486.49 546.78 L 486.00 547.21 L 486.02 543.28 L 485.78 522.82 L 485.50 498.50 L 486.00 522.97 L 486.17 531.05 L 486.49 546.78 ZM 930.72 522.79 C931.63,507.45 932.03,485.76 931.69,469.97 C931.89,475.83 931.99,481.95 931.99,488.50 C931.99,500.20 931.58,511.59 930.72,522.79 ZM 575.00 462.50 C573.71,463.88 572.88,465.00 573.15,465.00 C573.43,465.00 574.71,463.88 576.00,462.50 C577.29,461.12 578.12,460.00 577.85,460.00 C577.57,460.00 576.29,461.12 575.00,462.50 ZM 486.49 546.78 L 489.75 543.93 C490.86,542.96 495.71,538.36 502.48,531.87 L 486.50 547.44 L 486.49 546.78 ZM 930.51 450.06 C928.44,428.87 924.81,408.10 919.71,387.90 C921.64,395.51 923.37,403.22 924.89,411.00 C927.57,424.79 929.39,437.14 930.51,450.06 ZM 679.00 361.62 C679.00,361.41 679.79,360.63 680.75,359.87 C682.34,358.63 682.37,358.66 681.13,360.25 C679.82,361.92 679.00,362.45 679.00,361.62 ZM 811.07 198.30 C810.77,198.01 810.46,197.71 810.15,197.42 L 810.15 197.42 C806.74,194.13 803.28,190.90 799.75,187.72 C799.46,187.46 799.17,187.20 798.88,186.94 C803.03,190.64 807.09,194.43 811.07,198.30 ZM 786.75 176.56 C780.28,171.23 773.61,166.10 766.76,161.17 C773.65,166.13 780.36,171.29 786.88,176.66 Z" fill="rgb(53,109,252)"/>
<path d="M 523.00 512.08 C530.52,504.80 539.31,496.25 547.66,488.10 C564.48,472.03 572.28,465.05 572.90,465.44 C573.44,465.77 575.48,464.64 577.44,462.92 C579.40,461.20 581.00,460.28 581.00,460.87 C581.00,462.41 585.82,460.24 589.19,457.18 C590.73,455.79 592.54,454.99 593.41,455.33 C594.25,455.65 597.48,454.75 600.58,453.34 C605.00,451.31 607.14,450.88 610.54,451.35 C613.37,451.74 615.82,451.46 617.57,450.55 C619.05,449.78 623.02,449.17 626.38,449.18 C629.75,449.20 634.35,448.72 636.60,448.11 C639.35,447.37 650.74,447.14 671.09,447.42 C695.67,447.75 702.11,447.56 704.84,446.42 C706.70,445.65 708.61,445.26 709.11,445.57 C709.60,445.87 710.04,445.53 710.08,444.81 C710.14,443.75 710.26,443.76 710.69,444.83 C710.98,445.56 709.96,447.47 708.42,449.08 C706.88,450.69 706.10,452.00 706.68,452.00 C707.01,452.00 717.42,441.79 733.33,425.92 C730.38,428.88 727.48,431.80 724.65,434.64 L 668.80 490.78 L 674.70 497.81 C677.95,501.68 682.97,506.96 685.84,509.55 C688.72,512.14 690.87,514.47 690.61,514.73 C690.35,514.99 689.54,514.83 688.82,514.38 C688.09,513.93 686.97,513.48 686.32,513.38 C684.75,513.14 681.84,516.41 682.21,517.99 C682.37,518.67 681.40,519.41 680.05,519.64 C678.71,519.86 676.74,520.82 675.69,521.77 C673.61,523.65 670.78,524.00 655.30,524.30 C648.72,524.43 644.66,524.94 643.85,525.75 C643.16,526.44 641.40,527.00 639.92,527.00 C638.45,527.00 636.65,527.72 635.92,528.59 C633.93,530.99 619.16,538.00 617.47,537.35 C616.36,536.93 616.00,537.58 616.00,540.00 C616.00,542.23 615.60,543.06 614.70,542.71 C613.97,542.44 612.36,543.72 611.07,545.61 C609.79,547.47 608.07,549.00 607.25,549.00 C606.09,549.00 606.01,549.31 606.90,550.38 C607.79,551.45 607.69,551.91 606.44,552.38 C604.22,553.24 603.78,553.16 604.49,552.02 C604.82,551.48 604.61,550.14 604.02,549.04 C603.15,547.41 603.23,547.15 604.48,547.63 C606.32,548.34 606.46,547.31 604.75,545.62 C603.19,544.09 599.70,542.70 600.45,543.92 C601.32,545.33 597.20,543.94 595.91,542.39 C595.27,541.63 594.14,541.00 593.38,541.00 C592.24,541.00 592.00,546.11 592.00,570.50 C592.00,589.50 591.64,600.00 591.00,600.00 C590.39,600.00 589.92,594.44 589.79,585.75 C589.60,573.10 589.54,572.65 589.25,581.75 C589.07,587.45 588.50,592.00 587.97,592.00 C587.43,592.00 586.99,592.79 586.97,593.75 C586.93,596.04 581.25,602.27 579.93,601.46 C578.42,600.52 575.88,603.03 576.45,604.89 C576.73,605.78 576.63,607.00 576.23,607.60 C575.03,609.41 571.04,611.15 568.70,610.88 C565.90,610.56 561.82,611.90 562.45,612.93 C563.20,614.13 558.71,617.91 556.48,617.94 C551.55,618.02 546.85,619.38 545.67,621.05 C544.70,622.44 543.19,622.86 539.45,622.77 C536.73,622.71 532.24,623.10 529.47,623.64 C523.89,624.74 519.11,623.87 517.33,621.43 C515.92,619.51 508.97,617.67 509.29,619.30 C509.40,619.89 507.96,621.13 506.08,622.04 C503.47,623.32 501.74,623.50 498.77,622.84 C494.06,621.78 493.27,622.20 491.15,626.87 C489.50,630.49 489.50,630.46 489.02,616.50 L 488.54 602.50 L 487.99 619.50 C487.57,632.24 487.32,625.47 486.99,592.50 C486.61,553.28 486.49,550.83 485.96,570.00 C485.64,581.83 485.54,570.39 485.75,544.59 L 485.87 530.10 L 486.02 543.28 L 486.00 547.21 L 486.49 546.78 L 486.50 547.44 L 502.48 531.87 C508.28,526.30 515.51,519.34 523.00,512.08 ZM 867.39 691.58 C867.69,692.36 867.84,692.97 867.72,692.93 C865.04,692.11 859.38,688.04 858.14,686.04 C857.24,684.59 854.60,681.69 852.29,679.61 L 848.07 675.83 L 854.53 662.93 C864.73,642.59 872.59,623.55 878.71,604.07 C878.13,605.91 877.54,607.74 876.94,609.58 C874.13,618.15 872.11,625.44 872.45,625.78 C872.79,626.12 874.20,625.19 875.58,623.70 C877.62,621.49 878.95,621.00 882.85,621.00 C885.49,621.00 888.48,621.65 889.56,622.47 C892.11,624.40 900.94,624.43 903.68,622.51 C906.27,620.70 907.13,622.09 906.37,626.90 C905.44,632.79 907.40,630.38 910.09,622.98 C906.96,632.48 903.63,641.49 900.28,649.50 C893.67,665.29 880.01,693.00 878.85,693.00 C878.08,693.00 877.61,690.56 877.73,687.25 C877.80,685.49 875.45,685.70 873.52,687.62 C872.63,688.51 871.64,688.98 871.32,688.65 C870.25,687.58 866.83,690.12 867.39,691.58 ZM 881.32 595.33 C885.04,582.29 888.03,568.95 890.45,554.79 C894.98,528.37 896.56,502.39 895.18,476.66 C896.17,494.39 895.77,512.14 893.95,529.84 C893.86,530.77 893.76,531.76 893.66,532.76 C891.43,553.58 887.31,574.45 881.32,595.33 ZM 566.54 416.35 C558.33,424.60 548.69,434.34 538.44,444.75 L 486.13 497.86 L 486.13 497.68 L 538.99 444.10 C549.03,433.93 558.47,424.42 566.54,416.35 ZM 575.00 462.50 C576.29,461.12 577.57,460.00 577.85,460.00 C578.12,460.00 577.29,461.12 576.00,462.50 C574.71,463.88 573.43,465.00 573.15,465.00 C572.88,465.00 573.71,463.88 575.00,462.50 ZM 593.29 443.98 L 592.76 444.50 L 593.08 436.00 C593.14,434.62 593.18,433.09 593.21,431.47 ZM 931.61 466.81 C932.46,485.15 932.15,504.23 930.72,522.79 C931.58,511.59 931.99,500.20 931.99,488.50 C931.99,481.95 931.89,475.83 931.69,469.97 C931.67,468.89 931.64,467.83 931.61,466.81 ZM 685.00 512.00 C686.92,513.24 687.27,513.24 686.50,512.00 C686.16,511.45 685.35,511.01 684.69,511.02 C683.98,511.02 684.10,511.42 685.00,512.00 ZM 926.18 417.93 C925.78,415.65 925.34,413.35 924.89,411.00 C923.37,403.22 921.64,395.52 919.71,387.91 L 919.71 387.90 C915.75,372.23 910.91,356.90 905.22,341.98 C914.50,366.29 921.55,391.70 926.18,417.93 ZM 923.75 572.63 C925.27,565.21 926.57,557.78 927.66,550.31 C927.68,550.28 927.70,550.25 927.71,550.23 C926.76,556.84 925.65,563.28 924.39,569.50 C924.18,570.54 923.97,571.58 923.75,572.63 ZM 840.54 318.30 C843.22,315.67 844.78,314.16 845.00,314.01 C845.01,314.02 845.02,314.03 845.04,314.04 C844.75,314.23 843.15,315.76 840.54,318.30 Z" fill="rgb(92,79,252)"/>
<path d="M 466.00 828.03 C456.55,829.66 448.26,830.26 432.00,830.50 C420.17,830.68 409.15,830.64 407.50,830.41 C405.85,830.18 399.10,829.28 392.50,828.39 C370.22,825.42 341.80,817.16 322.10,807.93 C312.10,803.24 300.69,796.98 301.21,796.46 C301.41,796.26 305.74,797.40 310.84,799.00 C324.02,803.13 348.36,808.59 363.00,810.70 C380.78,813.26 425.00,813.24 444.00,810.67 C493.52,803.98 542.47,787.25 589.50,760.95 C601.62,754.17 621.23,741.76 624.75,738.65 C625.98,737.55 627.33,737.00 627.75,737.42 C628.16,737.84 621.75,744.78 613.50,752.85 C571.66,793.77 523.99,818.07 466.00,828.03 ZM 494.00 750.14 C492.62,751.48 490.26,753.36 488.75,754.31 L 486.00 756.05 L 485.75 673.77 C485.65,641.58 485.64,602.88 485.70,573.93 C485.75,575.61 485.84,574.46 485.96,570.00 C486.49,550.83 486.61,553.28 486.99,592.50 C487.32,625.47 487.57,632.24 487.99,619.50 L 488.54 602.50 L 489.02 616.50 C489.50,630.46 489.50,630.49 491.15,626.87 C493.27,622.20 494.06,621.78 498.77,622.84 C501.74,623.50 503.47,623.32 506.08,622.04 C507.96,621.13 509.40,619.89 509.29,619.30 C508.97,617.67 515.92,619.51 517.33,621.43 C519.11,623.87 523.89,624.74 529.47,623.64 C532.24,623.10 536.73,622.71 539.45,622.77 C543.19,622.86 544.70,622.44 545.67,621.05 C546.85,619.38 551.55,618.02 556.48,617.94 C558.71,617.91 563.20,614.13 562.45,612.93 C561.82,611.90 565.90,610.56 568.70,610.88 C571.04,611.15 575.03,609.41 576.23,607.60 C576.63,607.00 576.73,605.78 576.45,604.89 C575.88,603.03 578.42,600.52 579.93,601.46 C581.25,602.27 586.93,596.04 586.97,593.75 C586.99,592.79 587.43,592.00 587.97,592.00 C588.50,592.00 589.07,587.45 589.25,581.75 C589.54,572.65 589.60,573.10 589.79,585.75 C589.91,593.68 590.31,599.00 590.84,599.87 C590.21,618.73 589.43,631.06 589.20,622.19 C589.07,617.43 588.64,615.11 587.96,615.53 C587.39,615.88 587.19,617.03 587.53,618.08 C588.46,621.02 587.11,624.00 584.85,624.00 C583.75,624.00 580.80,626.05 578.30,628.55 C575.79,631.05 571.44,634.26 568.62,635.68 C565.81,637.09 562.31,639.10 560.85,640.13 C559.39,641.16 557.57,642.00 556.82,642.00 C556.06,642.00 554.40,642.73 553.12,643.63 C551.28,644.92 551.08,645.45 552.15,646.16 C553.22,646.88 553.03,647.42 551.23,648.78 C549.98,649.73 547.33,651.74 545.34,653.25 C543.35,654.76 540.74,656.00 539.54,656.00 C538.34,656.00 535.01,657.75 532.14,659.90 C529.27,662.04 525.47,664.38 523.71,665.10 C519.91,666.66 518.21,668.14 518.67,669.52 C518.86,670.07 517.59,671.64 515.87,673.01 C508.93,678.52 506.00,681.26 506.00,682.24 C506.00,683.70 502.84,685.93 500.73,685.97 C499.55,685.99 498.74,687.05 498.32,689.13 C497.96,690.96 496.94,692.46 495.89,692.74 C494.90,693.00 493.58,694.74 492.96,696.61 C491.21,701.94 490.10,699.69 490.16,690.91 C490.19,686.49 489.94,682.60 489.61,682.27 C489.27,681.94 489.06,688.60 489.13,697.08 C489.20,705.56 489.54,711.15 489.88,709.50 C490.78,705.16 494.99,699.07 497.13,699.02 C498.90,698.97 498.71,703.55 496.85,705.91 C495.18,708.03 495.08,708.55 496.30,708.80 C497.50,709.05 497.58,709.64 496.74,711.88 C495.38,715.49 496.47,719.60 499.54,722.45 C502.07,724.80 502.77,727.00 500.99,727.00 C500.43,727.00 499.00,729.01 497.80,731.47 L 495.63 735.93 L 498.37 738.47 C499.87,739.86 501.78,741.00 502.61,741.00 C503.54,741.00 503.83,741.47 503.37,742.21 C502.96,742.88 504.39,742.35 506.56,741.05 C508.73,739.74 512.53,737.53 515.00,736.14 L 519.50 733.61 L 517.00 736.29 C515.62,737.76 513.71,738.97 512.75,738.98 C511.79,738.99 511.00,739.45 511.00,740.00 C511.00,740.55 510.41,741.00 509.68,741.00 C508.95,741.00 506.90,742.30 505.12,743.90 C501.90,746.77 496.38,748.81 497.73,746.62 C498.70,745.05 498.80,742.00 497.88,742.00 C496.60,742.00 492.21,737.56 491.93,735.97 C491.79,735.16 492.23,733.16 492.90,731.53 C493.94,729.00 493.87,728.38 492.46,727.35 C491.50,726.65 490.47,723.88 490.02,720.82 L 489.25 715.50 L 488.90 722.50 C488.70,726.35 488.30,715.33 488.00,698.00 L 487.46 666.50 L 487.30 708.50 C487.21,732.65 487.51,749.65 488.00,748.50 C488.47,747.40 488.89,747.01 488.93,747.64 C489.04,749.45 491.94,750.10 494.32,748.85 C496.27,747.83 496.23,747.97 494.00,750.14 ZM 579.00 623.78 C579.00,624.75 579.48,624.81 580.94,624.03 C583.14,622.85 584.45,621.11 583.70,620.36 C582.88,619.55 579.00,622.37 579.00,623.78 ZM 500.05 695.91 C498.69,698.44 496.72,698.68 497.19,696.26 C497.37,695.31 498.34,694.37 499.34,694.17 C500.90,693.87 501.01,694.12 500.05,695.91 ZM 592.32 545.51 C592.53,542.06 592.86,541.00 593.38,541.00 L 593.40 541.00 C592.92,541.01 592.58,542.15 592.32,545.51 ZM 861.13 688.99 C859.87,688.02 858.75,686.98 858.19,686.11 C858.69,686.88 859.80,687.93 861.13,688.99 ZM 868.40 689.45 C869.36,688.60 870.72,688.05 871.32,688.65 C870.73,688.06 869.37,688.61 868.40,689.45 ZM 486.11 497.88 L 486.11 497.70 L 486.13 497.68 L 486.13 497.86 Z" fill="rgb(95,55,248)"/>
<path d="M 318.87 566.34 C322.21,570.38 318.69,567.23 309.03,557.53 C302.74,551.22 298.31,547.49 297.90,548.16 C297.53,548.76 295.90,549.07 294.29,548.83 C289.80,548.17 290.72,551.12 297.07,557.73 C301.17,562.00 300.27,561.39 293.38,555.21 C282.70,545.62 279.40,541.91 286.50,547.46 L 291.50 551.37 L 287.85 547.55 C285.85,545.45 283.31,543.68 282.22,543.62 C281.11,543.55 268.62,532.80 254.19,519.50 L 228.15 495.50 L 228.15 495.03 L 232.66 499.30 C236.91,503.31 237.81,503.72 242.78,503.88 C249.29,504.09 252.30,503.32 251.33,501.68 C250.35,500.04 270.88,519.21 279.95,528.40 C284.04,532.55 287.64,535.70 287.93,535.40 C288.06,535.27 285.79,532.79 281.91,528.74 C300.25,547.09 316.81,563.85 318.87,566.34 ZM 245.00 509.69 C245.00,509.51 243.54,508.05 241.75,506.44 L 238.50 503.50 L 241.44 506.75 C244.17,509.78 245.00,510.46 245.00,509.69 ZM 229.14 477.00 C229.18,476.99 229.21,476.99 229.25,476.99 C229.33,476.99 229.97,477.55 231.08,478.59 C229.98,477.60 229.31,477.05 229.14,477.00 ZM 228.26 479.45 C228.33,478.75 228.43,478.22 228.55,477.83 C228.43,478.23 228.33,478.77 228.26,479.45 Z" fill="rgb(120,126,164)"/>
<path d="M 494.00 750.14 C496.23,747.97 496.27,747.83 494.32,748.85 C491.94,750.10 489.04,749.45 488.93,747.64 C488.89,747.01 488.47,747.40 488.00,748.50 C487.51,749.65 487.21,732.65 487.30,708.50 L 487.46 666.50 L 488.00 698.00 C488.30,715.33 488.70,726.35 488.90,722.50 L 489.25 715.50 L 490.02 720.82 C490.47,723.88 491.50,726.65 492.46,727.35 C493.87,728.38 493.94,729.00 492.90,731.53 C492.23,733.16 491.79,735.16 491.93,735.97 C492.21,737.56 496.60,742.00 497.88,742.00 C498.80,742.00 498.70,745.05 497.73,746.62 C496.38,748.81 501.90,746.77 505.12,743.90 C506.90,742.30 508.95,741.00 509.68,741.00 C510.41,741.00 511.00,740.55 511.00,740.00 C511.00,739.45 511.79,738.99 512.75,738.98 C513.71,738.97 515.62,737.76 517.00,736.29 L 519.50 733.61 L 515.00 736.14 C512.53,737.53 508.73,739.74 506.56,741.05 C504.39,742.35 502.96,742.88 503.37,742.21 C503.83,741.47 503.54,741.00 502.61,741.00 C501.78,741.00 499.87,739.86 498.37,738.47 L 495.63 735.93 L 497.80 731.47 C499.00,729.01 500.43,727.00 500.99,727.00 C502.77,727.00 502.07,724.80 499.54,722.45 C496.47,719.60 495.38,715.49 496.74,711.88 C497.58,709.64 497.50,709.05 496.30,708.80 C495.08,708.55 495.18,708.03 496.85,705.91 C498.71,703.55 498.90,698.97 497.13,699.02 C494.99,699.07 490.78,705.16 489.88,709.50 C489.54,711.15 489.20,705.56 489.13,697.08 C489.06,688.60 489.27,681.94 489.61,682.27 C489.94,682.60 490.19,686.49 490.16,690.91 C490.10,699.69 491.21,701.94 492.96,696.61 C493.58,694.74 494.90,693.00 495.89,692.74 C496.94,692.46 497.96,690.96 498.32,689.13 C498.74,687.05 499.55,685.99 500.73,685.97 C502.84,685.93 506.00,683.70 506.00,682.24 C506.00,681.26 508.93,678.52 515.87,673.01 C517.59,671.64 518.86,670.07 518.67,669.52 C518.21,668.14 519.91,666.66 523.71,665.10 C525.47,664.38 529.27,662.04 532.14,659.90 C535.01,657.75 538.34,656.00 539.54,656.00 C540.74,656.00 543.35,654.76 545.34,653.25 C547.33,651.74 549.98,649.73 551.23,648.78 C553.03,647.42 553.22,646.88 552.15,646.16 C551.08,645.45 551.28,644.92 553.12,643.63 C554.40,642.73 556.06,642.00 556.82,642.00 C557.57,642.00 559.39,641.16 560.85,640.13 C562.31,639.10 565.81,637.09 568.62,635.68 C571.44,634.26 575.79,631.05 578.30,628.55 C580.80,626.05 583.75,624.00 584.85,624.00 C587.11,624.00 588.46,621.02 587.53,618.08 C587.19,617.03 587.39,615.88 587.96,615.53 C588.64,615.11 589.07,617.43 589.20,622.19 C589.43,631.06 590.21,618.73 590.84,599.87 C590.89,599.96 590.95,600.00 591.00,600.00 C591.64,600.00 592.00,589.50 592.00,570.50 C592.00,557.20 592.07,549.64 592.32,545.50 C592.58,542.15 592.92,541.01 593.40,541.00 C594.15,541.01 595.28,541.63 595.91,542.39 C597.20,543.94 601.32,545.33 600.45,543.92 C599.70,542.70 603.19,544.09 604.75,545.62 C606.46,547.31 606.32,548.34 604.48,547.63 C603.23,547.15 603.15,547.41 604.02,549.04 C604.61,550.14 604.82,551.48 604.49,552.02 C603.78,553.16 604.22,553.24 606.44,552.38 C607.69,551.91 607.79,551.45 606.90,550.38 C606.01,549.31 606.09,549.00 607.25,549.00 C608.07,549.00 609.79,547.47 611.07,545.61 C612.36,543.72 613.97,542.44 614.70,542.71 C615.60,543.06 616.00,542.23 616.00,540.00 C616.00,537.58 616.36,536.93 617.47,537.35 C619.16,538.00 633.93,530.99 635.92,528.59 C636.65,527.72 638.45,527.00 639.92,527.00 C641.40,527.00 643.16,526.44 643.85,525.75 C644.66,524.94 648.72,524.43 655.30,524.30 C670.78,524.00 673.61,523.65 675.69,521.77 C676.74,520.82 678.71,519.86 680.05,519.64 C681.40,519.41 682.37,518.67 682.21,517.99 C681.84,516.41 684.75,513.14 686.32,513.38 C686.97,513.48 688.09,513.93 688.82,514.38 C689.54,514.83 690.35,514.99 690.61,514.73 C690.65,514.68 690.63,514.58 690.54,514.43 C710.40,534.49 762.50,588.28 762.52,588.93 C762.52,589.25 762.87,590.03 763.28,590.68 C763.69,591.33 763.58,592.14 763.02,592.49 C762.46,592.84 762.00,593.99 762.00,595.05 C762.00,597.84 756.13,602.83 749.18,605.96 C747.91,606.53 745.38,608.14 743.56,609.52 C741.43,611.15 739.64,611.80 738.49,611.36 C737.34,610.92 736.25,611.31 735.40,612.46 C734.68,613.45 733.45,614.00 732.67,613.70 C729.38,612.44 721.00,621.20 721.00,625.90 C721.00,626.51 720.08,627.00 718.96,627.00 C717.26,627.00 717.10,627.32 717.96,628.93 C720.10,632.92 719.16,635.39 714.71,637.50 C711.87,638.85 710.40,640.24 710.18,641.76 C710.00,643.01 709.44,643.77 708.93,643.46 C708.42,643.14 708.00,644.03 708.00,645.44 C708.00,648.26 706.97,648.59 703.69,646.84 C702.50,646.20 700.48,645.56 699.21,645.42 C697.20,645.20 697.07,645.38 698.20,646.76 C699.31,648.12 699.27,648.22 697.92,647.43 C697.05,646.92 684.04,633.90 669.00,618.50 C628.41,576.94 593.65,542.02 593.25,542.41 C593.06,542.61 592.93,576.04 592.97,616.71 L 593.05 690.66 L 561.62 709.83 C544.34,720.37 529.74,729.00 529.18,729.00 C528.62,729.00 528.02,729.40 527.83,729.88 C527.65,730.36 518.16,736.41 506.75,743.33 L 489.83 753.58 C491.24,752.58 492.92,751.19 494.00,750.14 ZM 867.39 691.58 C867.15,690.94 867.66,690.11 868.40,689.45 C869.37,688.61 870.72,688.06 871.32,688.65 L 871.32 688.65 C871.64,688.98 872.63,688.51 873.52,687.62 C875.45,685.70 877.80,685.49 877.73,687.25 C877.61,690.56 878.08,693.00 878.85,693.00 C879.89,693.00 890.85,670.98 897.91,655.01 C892.86,666.82 887.31,678.33 881.26,689.50 C877.69,696.10 874.44,701.85 874.05,702.28 C872.59,703.88 869.87,701.54 858.82,689.17 L 847.49 676.50 L 852.71 666.50 C853.16,665.64 853.61,664.77 854.05,663.90 L 848.07 675.83 L 852.29 679.61 C854.60,681.69 857.24,684.59 858.14,686.04 C858.16,686.07 858.17,686.09 858.19,686.11 L 858.19 686.11 C858.75,686.98 859.87,688.02 861.13,688.98 L 861.13 688.99 C863.31,690.71 866.07,692.43 867.72,692.93 C867.84,692.97 867.69,692.36 867.39,691.58 ZM 579.00 623.78 C579.00,622.37 582.88,619.55 583.70,620.36 C584.45,621.11 583.14,622.85 580.94,624.03 C579.48,624.81 579.00,624.75 579.00,623.78 ZM 500.05 695.91 C501.01,694.12 500.90,693.87 499.34,694.17 C498.34,694.37 497.37,695.31 497.19,696.26 C496.72,698.68 498.69,698.44 500.05,695.91 ZM 880.49 598.20 C879.91,600.16 879.32,602.11 878.71,604.07 L 878.70 604.07 C874.20,618.41 868.76,632.50 862.14,647.05 C869.37,631.00 875.71,614.14 880.49,598.20 ZM 685.00 512.00 C684.10,511.42 683.98,511.02 684.69,511.02 C685.35,511.01 686.16,511.45 686.50,512.00 C687.27,513.24 686.92,513.24 685.00,512.00 ZM 894.76 470.30 C894.92,472.42 895.06,474.54 895.18,476.66 L 895.18 476.67 C896.10,493.93 895.70,511.30 893.96,528.85 C895.90,509.12 896.16,489.63 894.76,470.30 ZM 673.05 495.84 L 668.80 490.78 L 668.82 490.76 ZM 923.75 572.63 C923.97,571.58 924.18,570.54 924.39,569.50 C924.15,570.70 923.90,571.89 923.65,573.08 C923.68,572.93 923.72,572.78 923.75,572.63 Z" fill="rgb(120,64,251)"/>
<path d="M 180.53 758.79 C183.67,762.25 186.01,765.32 185.73,765.61 C184.96,766.38 173.77,752.79 167.57,743.55 C156.54,727.10 149.11,710.74 143.95,691.50 L 141.00 680.50 L 141.00 478.25 C141.00,367.01 141.37,276.00 141.81,276.00 C142.26,276.00 143.92,277.35 145.50,279.00 C148.52,282.15 147.98,283.20 144.82,280.34 C143.04,278.72 142.99,284.74 143.24,483.59 L 143.50 688.50 L 147.75 700.86 C155.27,722.71 167.69,744.66 180.53,758.79 ZM 259.36 505.93 C249.69,496.33 240.90,487.78 235.32,482.51 C243.46,489.98 260.74,507.16 297.50,544.02 C329.95,576.56 359.54,605.83 363.25,609.07 L 370.01 614.96 L 367.06 618.23 L 364.12 621.50 L 359.31 616.93 C356.67,614.41 345.50,604.07 334.50,593.94 C323.50,583.82 304.60,566.30 292.50,555.02 C280.62,543.94 270.86,534.84 262.87,527.41 C273.33,536.82 281.34,543.57 282.22,543.62 C283.31,543.68 285.85,545.45 287.85,547.55 L 291.50 551.37 L 286.50 547.46 C279.40,541.91 282.70,545.62 293.38,555.21 C300.27,561.39 301.17,562.00 297.07,557.73 C290.72,551.12 289.80,548.17 294.29,548.83 C295.90,549.07 297.53,548.76 297.90,548.16 C298.31,547.49 302.74,551.22 309.03,557.53 C318.69,567.23 322.21,570.38 318.87,566.34 C316.81,563.85 300.25,547.09 281.91,528.74 C276.68,523.30 268.54,515.05 259.36,505.93 ZM 229.59 497.00 C229.27,497.00 228.89,565.15 228.75,648.45 L 228.50 799.90 L 219.98 794.20 C205.41,784.44 189.00,771.01 189.00,768.82 C189.00,768.28 192.46,771.02 196.69,774.92 C201.47,779.32 204.98,781.82 205.94,781.52 C206.80,781.25 208.85,782.14 210.50,783.51 C212.58,785.23 212.89,785.79 211.50,785.31 C208.56,784.30 210.93,786.97 215.17,789.44 C217.95,791.05 218.27,791.10 217.13,789.69 C216.37,788.76 216.21,788.00 216.76,788.00 C217.31,788.00 218.30,786.68 218.97,785.07 C219.64,783.46 220.75,781.93 221.44,781.66 C222.13,781.40 222.73,779.74 222.78,777.99 C222.92,773.05 223.98,773.13 224.19,778.08 C224.30,780.66 224.63,778.96 225.00,774.00 L 225.63 765.50 L 226.03 775.00 C226.04,775.20 226.05,775.30 226.06,775.30 C226.29,775.30 226.69,712.38 226.97,631.33 C227.26,547.09 227.82,477.85 228.21,477.46 C228.32,477.35 228.48,477.31 228.72,477.36 C228.66,477.48 228.60,477.64 228.55,477.83 C228.43,478.22 228.33,478.75 228.26,479.45 C228.09,480.94 228.00,483.11 228.00,485.95 L 228.00 494.89 L 228.15 495.03 L 228.15 495.50 L 230.41 497.59 C229.92,497.18 229.66,497.00 229.59,497.00 ZM 352.74 609.22 C362.76,618.36 363.51,618.85 365.20,617.32 C366.56,616.09 366.72,615.37 365.87,614.35 C365.26,613.61 364.53,613.00 364.26,613.00 C363.98,613.00 364.37,613.76 365.13,614.69 C366.33,616.16 366.28,616.29 364.80,615.74 C363.51,615.25 363.25,615.51 363.72,616.80 C364.27,618.31 364.10,618.29 362.24,616.66 C359.97,614.67 359.57,610.62 361.71,611.44 C363.66,612.19 363.33,611.70 359.35,607.95 C357.34,606.05 356.02,605.06 356.41,605.75 C356.85,606.53 356.51,607.00 355.50,607.00 C354.61,607.00 354.16,607.45 354.50,608.00 C354.84,608.55 354.73,609.00 354.26,609.00 C352.74,609.00 346.75,602.21 347.38,601.20 C348.26,599.76 345.77,598.15 343.79,598.87 C342.44,599.36 344.39,601.62 352.74,609.22 ZM 219.97 781.06 C219.20,782.50 218.03,782.93 215.38,782.75 C213.43,782.61 211.30,782.14 210.66,781.71 C209.88,781.17 209.99,781.01 211.01,781.20 C211.83,781.36 213.52,780.48 214.76,779.24 C217.07,776.93 221.00,776.19 221.00,778.07 C221.00,778.65 220.53,780.00 219.97,781.06 ZM 206.87 783.34 C207.63,784.25 208.64,785.00 209.12,785.00 C210.65,785.00 210.08,784.11 207.75,782.87 C205.71,781.78 205.63,781.83 206.87,783.34 Z" fill="rgb(163,163,198)"/>
<path d="M 529.60 917.99 C514.63,919.16 480.96,919.10 466.50,917.87 C439.26,915.56 408.11,909.69 379.50,901.48 C335.46,888.85 283.71,863.16 245.44,834.94 C233.89,826.43 212.81,808.86 213.41,808.25 C213.67,808.00 217.62,810.27 222.19,813.29 C262.88,840.21 325.21,864.16 381.33,874.44 C412.30,880.11 428.46,881.40 468.50,881.44 C508.31,881.47 519.18,880.56 553.00,874.40 C642.62,858.07 721.66,814.92 781.14,749.84 L 789.05 741.18 L 761.36 712.84 C731.00,681.77 705.04,655.23 683.26,633.00 C691.49,641.31 697.35,647.09 697.92,647.43 C699.27,648.22 699.31,648.12 698.20,646.76 C697.07,645.38 697.20,645.20 699.21,645.42 C700.48,645.56 702.50,646.20 703.69,646.84 C706.97,648.59 708.00,648.26 708.00,645.44 C708.00,644.03 708.42,643.14 708.93,643.46 C709.44,643.77 710.00,643.01 710.18,641.76 C710.40,640.24 711.87,638.85 714.71,637.50 C719.16,635.39 720.10,632.92 717.96,628.93 C717.10,627.32 717.26,627.00 718.96,627.00 C720.08,627.00 721.00,626.51 721.00,625.90 C721.00,621.20 729.38,612.44 732.67,613.70 C733.45,614.00 734.68,613.45 735.40,612.46 C736.25,611.31 737.34,610.92 738.49,611.36 C739.64,611.80 741.43,611.15 743.56,609.52 C745.38,608.14 747.91,606.53 749.18,605.96 C756.13,602.83 762.00,597.84 762.00,595.05 C762.00,593.99 762.46,592.84 763.02,592.49 C763.58,592.14 763.69,591.33 763.28,590.68 C762.87,590.03 762.52,589.25 762.52,588.93 C762.50,588.28 710.40,534.49 690.54,514.43 L 690.53 514.41 C690.90,514.78 691.26,515.14 691.61,515.50 C698.21,522.10 723.84,548.41 748.56,573.97 C773.28,599.54 805.65,632.95 820.50,648.22 C835.35,663.49 847.61,675.99 847.74,676.00 C847.75,676.00 847.75,676.00 847.76,675.99 L 847.49 676.50 L 858.82 689.17 C869.00,700.57 872.11,703.45 873.68,702.58 C842.83,755.29 800.81,801.44 749.50,838.12 C685.32,884.01 608.97,911.74 529.60,917.99 ZM 894.76 470.30 C894.95,472.87 895.10,475.45 895.23,478.02 C895.18,477.18 895.13,476.34 895.07,475.50 C894.03,460.30 892.25,445.82 889.65,431.75 C892.09,444.56 893.79,457.42 894.76,470.30 ZM 673.05 495.84 L 671.82 494.36 L 674.20 497.15 C676.22,499.52 680.49,504.10 685.09,508.85 C682.15,506.10 677.68,501.36 674.70,497.81 ZM 854.29 663.43 C857.80,656.19 862.02,647.23 865.01,640.52 C864.07,642.71 863.11,644.88 862.14,647.05 C859.76,652.27 857.23,657.56 854.53,662.93 ZM 660.05 609.34 C638.53,587.44 622.47,571.16 611.49,560.14 C623.67,572.34 640.93,589.82 660.05,609.34 ZM 845.49 314.56 C846.87,316.47 850.36,323.07 854.37,331.11 C850.25,323.07 846.70,316.45 845.49,314.56 ZM 873.89 374.91 C871.54,368.62 868.99,362.32 866.22,355.99 C867.89,359.69 869.31,362.98 870.31,365.50 C871.55,368.63 872.74,371.77 873.89,374.91 ZM 881.32 595.33 C881.05,596.28 880.77,597.24 880.49,598.20 C880.18,599.24 879.86,600.28 879.53,601.33 C881.74,594.06 883.74,586.68 885.51,579.23 C884.23,584.67 882.84,590.02 881.32,595.33 Z" fill="rgb(154,45,250)"/>
<path d="M 227.94 486.74 C227.59,508.34 227.20,565.22 226.97,631.33 C226.87,661.19 226.75,688.58 226.62,711.28 C226.55,690.97 226.36,670.80 226.06,659.00 C225.68,644.42 225.22,636.10 225.04,640.50 C224.73,647.76 224.64,648.09 224.00,644.00 C223.62,641.53 223.23,640.29 223.15,641.25 C223.07,642.24 222.19,643.00 221.12,643.00 C220.09,643.00 218.66,643.70 217.95,644.56 C217.18,645.49 215.78,645.91 214.53,645.60 C213.34,645.30 211.01,645.93 209.19,647.03 C207.41,648.12 204.39,649.00 202.48,649.00 C200.56,649.00 199.00,649.42 199.00,649.94 C199.00,650.45 198.21,650.91 197.25,650.96 C196.29,651.00 192.24,651.20 188.25,651.40 C184.26,651.59 181.00,651.37 181.00,650.90 C181.00,649.02 174.31,646.77 167.82,646.48 C163.09,646.27 159.85,645.52 157.42,644.08 C153.56,641.81 149.51,641.37 148.43,643.11 C147.96,643.88 147.49,643.80 146.89,642.86 C146.32,641.96 145.99,642.85 145.90,645.50 C145.77,649.37 145.74,649.40 145.00,646.50 C144.32,643.85 143.32,672.76 143.67,684.58 C143.80,688.96 148.05,702.25 152.66,713.56 C150.86,709.36 149.21,705.11 147.75,700.86 L 143.50 688.50 L 143.24 483.59 C143.17,424.24 143.12,382.06 143.13,352.15 C143.14,370.27 143.17,392.89 143.22,421.10 C143.33,493.05 143.62,545.76 143.89,545.76 C143.92,545.76 143.94,545.35 143.97,544.50 C144.26,534.05 144.77,526.85 145.10,528.50 C145.57,530.83 145.73,530.33 145.85,526.25 C145.93,523.36 145.89,520.77 145.75,520.49 C145.61,520.21 147.07,519.03 148.98,517.86 C150.90,516.70 152.96,515.07 153.56,514.25 C154.46,513.02 155.07,512.97 156.93,513.96 C158.18,514.63 160.10,514.95 161.20,514.66 C162.30,514.37 163.82,514.38 164.60,514.68 C166.24,515.30 166.50,518.00 164.93,518.00 C164.34,518.00 164.00,518.74 164.18,519.66 C164.47,521.15 166.13,521.91 169.75,522.23 C170.44,522.28 171.00,522.60 171.00,522.92 C171.00,523.24 175.81,523.50 181.68,523.50 C190.60,523.50 192.75,523.81 194.74,525.37 C196.05,526.40 196.89,527.85 196.60,528.59 C195.68,530.99 197.49,530.90 199.88,528.42 C202.55,525.64 203.73,525.48 206.43,527.53 C208.03,528.73 208.73,528.76 210.43,527.72 C211.57,527.02 214.75,526.50 217.50,526.57 C220.25,526.64 222.83,526.20 223.23,525.60 C223.64,524.99 224.03,525.85 224.10,527.50 C224.20,529.87 224.37,530.08 224.87,528.50 C225.21,527.40 225.74,533.47 226.04,542.00 C226.53,555.96 226.60,554.92 226.79,531.50 C226.96,511.61 227.37,496.05 227.94,486.74 ZM 369.80 614.78 L 363.25 609.07 C359.54,605.83 329.95,576.56 297.50,544.02 C279.97,526.44 266.86,513.34 257.07,503.63 C259.24,505.77 261.48,507.98 263.77,510.25 C282.19,528.54 296.54,542.35 295.65,540.95 C294.76,539.55 292.67,537.40 291.02,536.17 C289.36,534.94 288.00,533.48 288.00,532.91 C288.00,532.35 288.34,532.09 288.75,532.34 C289.16,532.60 289.62,531.20 289.76,529.24 C290.10,524.69 291.53,523.00 295.07,523.00 C296.63,523.00 298.26,522.35 298.71,521.56 C299.82,519.58 315.00,520.59 315.00,522.64 C315.00,523.67 316.63,523.92 321.96,523.69 C327.81,523.44 329.25,523.02 330.96,521.04 C333.51,518.11 333.52,517.63 331.00,518.29 C329.90,518.58 329.25,518.41 329.56,517.91 C330.53,516.34 332.89,516.92 334.00,519.00 C335.24,521.32 337.48,521.50 341.00,519.54 C343.13,518.36 343.73,518.36 345.05,519.55 C347.38,521.65 353.52,520.35 354.83,517.47 C355.88,515.18 357.35,514.84 359.75,516.34 C360.44,516.77 361.00,516.85 361.00,516.52 C361.00,516.20 361.90,516.41 363.00,517.00 C364.62,517.87 365.00,517.76 365.00,516.43 C365.00,515.25 365.49,514.99 366.75,515.53 C367.71,515.93 369.29,516.23 370.25,516.20 C371.21,516.16 372.00,516.59 372.00,517.17 C372.00,517.74 372.72,517.94 373.59,517.60 C375.54,516.86 377.71,517.94 376.17,518.89 C374.43,519.97 384.15,519.97 389.70,518.89 C393.39,518.17 395.51,518.20 396.98,518.99 C398.53,519.82 399.92,519.80 402.38,518.91 C405.32,517.84 406.03,517.96 408.77,519.99 C410.67,521.39 412.66,522.06 413.93,521.73 C417.13,520.89 417.31,522.60 414.26,524.88 L 411.50 526.94 L 414.05 526.97 C415.45,526.99 417.12,526.48 417.76,525.84 C418.40,525.20 421.42,524.63 424.46,524.59 C427.51,524.54 430.00,524.10 430.00,523.62 C430.00,523.13 431.57,522.99 433.49,523.30 C435.86,523.69 437.22,523.44 437.74,522.51 C438.16,521.77 439.85,520.82 441.50,520.41 C444.15,519.75 444.35,519.85 443.20,521.24 C442.09,522.60 442.46,523.13 445.90,525.07 C449.21,526.92 449.74,527.62 448.94,529.10 C448.25,530.40 448.39,531.12 449.48,531.73 C450.62,532.37 440.87,542.84 407.74,576.53 C391.67,592.87 377.45,607.20 369.80,614.78 ZM 593.29 443.98 L 593.21 431.47 C593.24,429.98 593.26,428.42 593.28,426.80 C593.54,436.97 593.99,439.13 595.02,438.49 C595.47,438.21 595.99,438.47 596.18,439.05 C596.38,439.64 606.91,430.08 619.58,417.81 C627.00,410.62 646.86,390.86 670.39,367.33 C647.12,390.65 626.93,410.83 617.63,419.99 ZM 293.00 555.50 C280.75,544.07 270.72,534.72 262.55,527.12 L 262.87 527.41 C270.86,534.84 280.62,543.94 292.50,555.02 C304.60,566.30 323.50,583.82 334.50,593.94 C339.34,598.40 344.22,602.90 348.38,606.76 C335.40,594.90 315.41,576.42 293.00,555.50 ZM 180.53 758.79 C174.46,752.12 168.49,743.70 163.09,734.37 C168.63,743.65 175.17,752.90 180.53,758.79 ZM 225.50 767.26 L 225.09 772.77 L 225.38 765.50 ZM 237.33 484.37 C236.60,483.69 235.93,483.07 235.32,482.51 C233.57,480.85 232.13,479.52 231.08,478.59 C230.06,477.63 229.44,477.08 229.28,477.00 L 229.29 477.00 C229.52,477.00 232.52,479.77 237.33,484.37 ZM 566.54 416.35 C558.54,424.35 549.20,433.76 539.26,443.83 C551.57,431.36 562.96,419.89 572.00,410.86 C570.27,412.60 568.44,414.43 566.54,416.35 ZM 230.43 497.60 C229.93,497.19 229.67,497.00 229.60,497.00 C229.67,497.00 229.92,497.18 230.41,497.59 ZM 592.32 391.01 C592.30,391.02 592.28,391.03 592.25,391.05 L 592.25 391.05 C592.28,391.03 592.31,391.01 592.32,391.01 Z" fill="rgb(238,238,245)"/>
<path d="M 180.53 758.79 C174.46,752.12 168.49,743.70 163.09,734.37 C159.28,727.79 155.74,720.75 152.66,713.56 C148.05,702.25 143.80,688.96 143.67,684.58 C143.32,672.76 144.32,643.85 145.00,646.50 C145.74,649.40 145.77,649.37 145.90,645.50 C145.99,642.85 146.32,641.96 146.89,642.86 C147.49,643.80 147.96,643.88 148.43,643.11 C149.51,641.37 153.56,641.81 157.42,644.08 C159.85,645.52 163.09,646.27 167.82,646.48 C174.31,646.77 181.00,649.02 181.00,650.90 C181.00,651.37 184.26,651.59 188.25,651.40 C192.24,651.20 196.29,651.00 197.25,650.96 C198.21,650.91 199.00,650.45 199.00,649.94 C199.00,649.42 200.56,649.00 202.48,649.00 C204.39,649.00 207.41,648.12 209.19,647.03 C211.01,645.93 213.34,645.30 214.53,645.60 C215.78,645.91 217.18,645.49 217.95,644.56 C218.66,643.70 220.09,643.00 221.12,643.00 C222.19,643.00 223.07,642.24 223.15,641.25 C223.23,640.29 223.62,641.53 224.00,644.00 C224.64,648.09 224.73,647.76 225.04,640.50 C225.22,636.10 225.68,644.42 226.06,659.00 C226.36,670.80 226.55,690.97 226.62,711.28 C226.42,750.20 226.20,775.30 226.06,775.30 C226.05,775.30 226.04,775.20 226.03,775.00 L 225.63 765.50 L 225.50 767.26 L 225.38 765.50 L 225.09 772.77 L 225.00 774.00 C224.63,778.96 224.30,780.66 224.19,778.08 C223.98,773.13 222.92,773.05 222.78,777.99 C222.73,779.74 222.13,781.40 221.44,781.66 C220.75,781.93 219.64,783.46 218.97,785.07 C218.30,786.68 217.31,788.00 216.76,788.00 C216.21,788.00 216.37,788.76 217.13,789.69 C218.27,791.10 217.95,791.05 215.17,789.44 C210.93,786.97 208.56,784.30 211.50,785.31 C212.89,785.79 212.58,785.23 210.50,783.51 C208.85,782.14 206.80,781.25 205.94,781.52 C204.98,781.82 201.47,779.32 196.69,774.92 C192.46,771.02 189.00,768.28 189.00,768.82 C189.00,771.01 205.41,784.44 219.98,794.20 L 223.35 796.45 L 220.00 794.33 C183.25,771.01 159.25,739.95 145.15,697.50 L 141.50 686.50 L 141.49 682.33 L 143.95 691.50 C149.11,710.74 156.54,727.10 167.57,743.55 C173.77,752.79 184.96,766.38 185.73,765.61 C186.01,765.32 183.67,762.25 180.53,758.79 ZM 352.74 609.22 C344.39,601.62 342.44,599.36 343.79,598.87 C345.77,598.15 348.26,599.76 347.38,601.20 C346.75,602.21 352.74,609.00 354.26,609.00 C354.73,609.00 354.84,608.55 354.50,608.00 C354.16,607.45 354.61,607.00 355.50,607.00 C356.51,607.00 356.85,606.53 356.41,605.75 C356.02,605.06 357.34,606.05 359.35,607.95 C363.33,611.70 363.66,612.19 361.71,611.44 C359.57,610.62 359.97,614.67 362.24,616.66 C364.10,618.29 364.27,618.31 363.72,616.80 C363.25,615.51 363.51,615.25 364.80,615.74 C366.28,616.29 366.33,616.16 365.13,614.69 C364.37,613.76 363.98,613.00 364.26,613.00 C364.53,613.00 365.26,613.61 365.87,614.35 C366.72,615.37 366.56,616.09 365.20,617.32 C363.51,618.85 362.76,618.36 352.74,609.22 ZM 219.97 781.06 C220.53,780.00 221.00,778.65 221.00,778.07 C221.00,776.19 217.07,776.93 214.76,779.24 C213.52,780.48 211.83,781.36 211.01,781.20 C209.99,781.01 209.88,781.17 210.66,781.71 C211.30,782.14 213.43,782.61 215.38,782.75 C218.03,782.93 219.20,782.50 219.97,781.06 ZM 313.59 574.67 C327.47,587.55 339.55,598.69 348.38,606.76 C353.68,611.66 357.83,615.52 359.31,616.93 L 361.96 619.44 C359.16,617.13 353.61,612.14 347.42,606.31 C338.90,598.30 330.52,590.45 313.59,574.67 ZM 369.80 614.78 C377.45,607.20 391.67,592.87 407.74,576.53 C437.01,546.77 448.03,535.13 449.42,532.37 C448.03,535.13 437.02,546.76 407.78,576.53 C391.78,592.83 377.58,607.19 369.91,614.87 ZM 206.87 783.34 C205.63,781.83 205.71,781.78 207.75,782.87 C210.08,784.11 210.65,785.00 209.12,785.00 C208.64,785.00 207.63,784.25 206.87,783.34 ZM 288.87 551.65 C280.91,544.24 271.73,535.70 261.06,525.78 C261.57,526.23 262.06,526.68 262.55,527.12 C269.78,533.85 278.47,541.95 288.87,551.65 ZM 229.59 497.00 C229.60,497.00 229.60,497.00 229.60,497.00 C229.68,497.01 229.94,497.20 230.43,497.60 L 232.17 499.20 C230.66,497.87 229.75,497.09 229.59,497.01 C229.59,497.00 229.59,497.00 229.59,497.00 ZM 141.81 276.00 C141.71,276.05 141.61,280.75 141.52,289.28 C141.60,280.70 141.70,276.00 141.80,276.00 C141.80,276.00 141.81,276.00 141.81,276.00 Z" fill="rgb(206,208,226)"/>
<path d="M 0.00 512.00 L 0.00 0.00 L 512.00 0.00 L 1024.00 0.00 L 1024.00 512.00 L 1024.00 1024.00 L 512.00 1024.00 L 0.00 1024.00 L 0.00 512.00 ZM 529.60 917.99 C608.97,911.74 685.32,884.01 749.50,838.12 C840.59,773.00 902.42,678.04 924.39,569.50 C932.93,527.34 934.48,474.58 928.43,432.00 C911.82,315.18 847.71,213.26 751.50,150.74 C699.93,117.22 641.27,96.12 578.00,88.33 C557.53,85.81 508.32,85.82 488.50,88.36 C438.51,94.75 399.17,106.51 355.31,128.19 C347.51,132.04 338.87,136.62 336.11,138.35 C333.36,140.08 326.37,144.40 320.57,147.94 C269.03,179.44 219.28,232.78 193.33,284.35 C190.88,289.22 189.07,293.40 189.31,293.64 C189.54,293.88 194.00,288.99 199.21,282.79 C218.35,259.98 235.45,242.73 256.66,224.83 C323.56,168.38 399.87,136.30 484.88,128.92 C502.16,127.41 546.46,128.28 562.00,130.42 C647.10,142.17 718.17,176.24 776.75,233.37 L 790.00 246.29 L 785.31 251.40 C775.75,261.80 641.82,396.28 619.58,417.81 C606.91,430.08 596.38,439.64 596.18,439.05 C595.99,438.47 595.47,438.21 595.02,438.49 C593.63,439.35 593.30,435.12 593.05,413.00 C592.92,401.17 592.60,391.28 592.33,391.01 C592.07,390.74 568.06,414.64 538.98,444.11 L 486.11 497.70 L 485.81 544.60 C485.64,570.40 485.61,628.49 485.75,673.70 L 486.00 755.90 L 506.75 743.33 C518.16,736.41 527.65,730.36 527.83,729.88 C528.02,729.40 528.62,729.00 529.18,729.00 C529.74,729.00 544.34,720.37 561.62,709.83 L 593.05 690.66 L 592.97 616.71 C592.93,576.04 593.06,542.61 593.25,542.41 C593.82,541.85 645.58,594.32 761.36,712.84 L 789.05 741.18 L 781.14 749.84 C721.66,814.92 642.62,858.07 553.00,874.40 C519.18,880.56 508.31,881.47 468.50,881.44 C428.46,881.40 412.30,880.11 381.33,874.44 C325.21,864.16 262.88,840.21 222.19,813.29 C217.62,810.27 213.67,808.00 213.41,808.25 C212.81,808.86 233.89,826.43 245.44,834.94 C283.71,863.16 335.46,888.85 379.50,901.48 C408.11,909.69 439.26,915.56 466.50,917.87 C480.96,919.10 514.63,919.16 529.60,917.99 ZM 466.00 828.03 C523.99,818.07 571.66,793.77 613.50,752.85 C621.75,744.78 628.16,737.84 627.75,737.42 C627.33,737.00 625.98,737.55 624.75,738.65 C621.23,741.76 601.62,754.17 589.50,760.95 C542.47,787.25 493.52,803.98 444.00,810.67 C425.00,813.24 380.78,813.26 363.00,810.70 C348.36,808.59 324.02,803.13 310.84,799.00 C305.74,797.40 301.41,796.26 301.21,796.46 C300.69,796.98 312.10,803.24 322.10,807.93 C341.80,817.16 370.22,825.42 392.50,828.39 C399.10,829.28 405.85,830.18 407.50,830.41 C409.15,830.64 420.17,830.68 432.00,830.50 C448.26,830.26 456.55,829.66 466.00,828.03 ZM 229.57 497.00 C229.88,497.00 242.10,508.14 256.73,521.75 C317.93,578.68 332.47,592.24 347.42,606.31 C356.07,614.45 363.47,620.98 363.87,620.81 C364.26,620.64 384.03,600.71 407.78,576.53 C440.88,542.83 450.62,532.37 449.48,531.73 C448.39,531.12 448.25,530.40 448.94,529.10 C449.74,527.62 449.21,526.92 445.90,525.07 C442.46,523.13 442.09,522.60 443.20,521.24 C444.35,519.85 444.15,519.75 441.50,520.41 C439.85,520.82 438.16,521.77 437.74,522.51 C437.22,523.44 435.86,523.69 433.49,523.30 C431.57,522.99 430.00,523.13 430.00,523.62 C430.00,524.10 427.51,524.54 424.46,524.59 C421.42,524.63 418.40,525.20 417.76,525.84 C417.12,526.48 415.45,526.99 414.05,526.97 L 411.50 526.94 L 414.26 524.88 C417.31,522.60 417.13,520.89 413.93,521.73 C412.66,522.06 410.67,521.39 408.77,519.99 C406.03,517.96 405.32,517.84 402.38,518.91 C399.92,519.80 398.53,519.82 396.98,518.99 C395.51,518.20 393.39,518.17 389.70,518.89 C384.15,519.97 374.43,519.97 376.17,518.89 C377.71,517.94 375.54,516.86 373.59,517.60 C372.72,517.94 372.00,517.74 372.00,517.17 C372.00,516.59 371.21,516.16 370.25,516.20 C369.29,516.23 367.71,515.93 366.75,515.53 C365.49,514.99 365.00,515.25 365.00,516.43 C365.00,517.76 364.62,517.87 363.00,517.00 C361.90,516.41 361.00,516.20 361.00,516.52 C361.00,516.85 360.44,516.77 359.75,516.34 C357.35,514.84 355.88,515.18 354.83,517.47 C353.52,520.35 347.38,521.65 345.05,519.55 C343.73,518.36 343.13,518.36 341.00,519.54 C337.48,521.50 335.24,521.32 334.00,519.00 C332.89,516.92 330.53,516.34 329.56,517.91 C329.25,518.41 329.90,518.58 331.00,518.29 C333.52,517.63 333.51,518.11 330.96,521.04 C329.25,523.02 327.81,523.44 321.96,523.69 C316.63,523.92 315.00,523.67 315.00,522.64 C315.00,520.59 299.82,519.58 298.71,521.56 C298.26,522.35 296.63,523.00 295.07,523.00 C291.53,523.00 290.10,524.69 289.76,529.24 C289.62,531.20 289.16,532.60 288.75,532.34 C288.34,532.09 288.00,532.35 288.00,532.91 C288.00,533.48 289.36,534.94 291.02,536.17 C292.67,537.40 294.76,539.55 295.65,540.95 C296.54,542.35 282.19,528.54 263.77,510.25 C245.34,491.96 229.82,477.00 229.29,477.00 C228.04,477.00 227.07,498.17 226.79,531.50 C226.60,554.92 226.53,555.96 226.04,542.00 C225.74,533.47 225.21,527.40 224.87,528.50 C224.37,530.08 224.20,529.87 224.10,527.50 C224.03,525.85 223.64,524.99 223.23,525.60 C222.83,526.20 220.25,526.64 217.50,526.57 C214.75,526.50 211.57,527.02 210.43,527.72 C208.73,528.76 208.03,528.73 206.43,527.53 C203.73,525.48 202.55,525.64 199.88,528.42 C197.49,530.90 195.68,530.99 196.60,528.59 C196.89,527.85 196.05,526.40 194.74,525.37 C192.75,523.81 190.60,523.50 181.68,523.50 C175.81,523.50 171.00,523.24 171.00,522.92 C171.00,522.60 170.44,522.28 169.75,522.23 C166.13,521.91 164.47,521.15 164.18,519.66 C164.00,518.74 164.34,518.00 164.93,518.00 C166.50,518.00 166.24,515.30 164.60,514.68 C163.82,514.38 162.30,514.37 161.20,514.66 C160.10,514.95 158.18,514.63 156.93,513.96 C155.07,512.97 154.46,513.02 153.56,514.25 C152.96,515.07 150.90,516.70 148.98,517.86 C147.07,519.03 145.61,520.21 145.75,520.49 C145.89,520.77 145.93,523.36 145.85,526.25 C145.73,530.33 145.57,530.83 145.10,528.50 C144.77,526.85 144.26,534.05 143.97,544.50 C143.67,554.95 143.34,499.42 143.22,421.10 C143.01,283.19 143.06,278.74 144.83,280.35 C147.99,283.20 148.51,282.14 145.50,279.00 C143.92,277.35 142.25,276.00 141.80,276.00 C141.34,276.00 141.09,368.36 141.24,481.25 L 141.50 686.50 L 145.15 697.50 C159.25,739.95 183.25,771.01 220.00,794.33 L 228.50 799.72 L 228.75 648.36 C228.89,565.11 229.26,497.00 229.57,497.00 ZM 820.50 648.22 C805.65,632.95 773.28,599.54 748.56,573.97 C723.84,548.41 698.21,522.10 691.61,515.50 C685.02,508.90 677.18,500.64 674.20,497.15 L 668.78 490.80 L 724.64 434.65 C755.36,403.77 794.90,364.00 812.50,346.27 C830.10,328.54 844.76,314.02 845.08,314.02 C845.39,314.01 849.95,322.44 855.21,332.75 C879.38,380.16 891.52,423.66 895.07,475.50 C898.57,526.61 888.03,586.71 866.87,636.27 C861.70,648.39 848.40,676.01 847.74,676.00 C847.61,675.99 835.35,663.49 820.50,648.22 Z" fill="rgb(253,253,253)"/>
</g>
</svg>